# xmcd
#
# Track frame offsets:
#	150
#	11969
#	23788
#	42495
#	61211
#	73220
#	85229
#	97969
#	110709
#	131654
#	152594
#	166205
#	179816
#	192722
#	205652
#	217882
#	230116
#	243514
#
# Disc length: 3261 seconds
#
# Revision: 0
# Processed by: cddbd v1.5.2PL0 Copyright (c) Steve Scherf et al.
# Submitted via: dBpowerAMP V4.0
#
DISCID=0a0cbb12
DTITLE=Hal Leonard - Blues Guitar Play Along Volume 38
DYEAR=2006
DGENRE=Blues
TTITLE0=Boom Boom - John Lee Hooker
TTITLE1=Backing - Boom Boom - John Lee Hooker
TTITLE2=Cold Shot - Stevie Ray Vaughan
TTITLE3=Backing - Cold Shot - Stevie Ray Vaughan
TTITLE4=Crosscut Saw - Freddie King
TTITLE5=Backing - Crosscut Saw - Freddie King
TTITLE6=Everyday I Have The Blues - B.B. King
TTITLE7=Backing - Everyday I Have The Blues - B.B. King
TTITLE8=Frosty - Albert Collins
TTITLE9=Backing - Frosty - Albert Collins
TTITLE10=Further on Up the Road - Bobby "Blue" Bland
TTITLE11=Backing - Further on Up the Road - Bobby "Blue" Bland
TTITLE12=Killing Floor - Howlin' Wolf
TTITLE13=Backing - Killing Floor - Howlin' Wolf
TTITLE14=Texas Flood - Larry Davis
TTITLE15=Backing - Texas Flood - Larry Davis
TTITLE16=Tuning Notes
TTITLE17=DATA
EXTD=
EXTT0=
EXTT1=
EXTT2=
EXTT3=
EXTT4=
EXTT5=
EXTT6=
EXTT7=
EXTT8=
EXTT9=
EXTT10=
EXTT11=
EXTT12=
EXTT13=
EXTT14=
EXTT15=
EXTT16=
EXTT17=
PLAYORDER=
